<svg width="134" height="61" viewBox="0 0 134 61" fill="none" xmlns="http://www.w3.org/2000/svg">
<path d="M75.1152 8.60742V9.18359C75.1152 10.2708 74.9622 11.2474 74.6562 12.1133C74.3568 12.9727 73.9303 13.7083 73.377 14.3203C72.8236 14.9258 72.1693 15.3913 71.4141 15.7168C70.6589 16.0358 69.8255 16.1953 68.9141 16.1953C67.9961 16.1953 67.1562 16.0358 66.3945 15.7168C65.6393 15.3913 64.9818 14.9258 64.4219 14.3203C63.8685 13.7083 63.4388 12.9727 63.1328 12.1133C62.8333 11.2474 62.6836 10.2708 62.6836 9.18359V8.60742C62.6836 7.52018 62.8333 6.54362 63.1328 5.67773C63.4388 4.81185 63.8652 4.07617 64.4121 3.4707C64.9655 2.85872 65.6198 2.39323 66.375 2.07422C67.1367 1.7487 67.9766 1.58594 68.8945 1.58594C69.806 1.58594 70.6393 1.7487 71.3945 2.07422C72.1562 2.39323 72.8138 2.85872 73.3672 3.4707C73.9206 4.07617 74.3503 4.81185 74.6562 5.67773C74.9622 6.54362 75.1152 7.52018 75.1152 8.60742ZM71.6387 9.18359V8.58789C71.6387 7.88477 71.5768 7.26628 71.4531 6.73242C71.3359 6.19206 71.1602 5.73958 70.9258 5.375C70.6914 5.01042 70.4017 4.73698 70.0566 4.55469C69.7181 4.36589 69.3307 4.27148 68.8945 4.27148C68.4388 4.27148 68.0417 4.36589 67.7031 4.55469C67.3646 4.73698 67.0814 5.01042 66.8535 5.375C66.6257 5.73958 66.4531 6.19206 66.3359 6.73242C66.2253 7.26628 66.1699 7.88477 66.1699 8.58789V9.18359C66.1699 9.88021 66.2253 10.4987 66.3359 11.0391C66.4531 11.5729 66.6257 12.0254 66.8535 12.3965C67.0879 12.7676 67.3743 13.0475 67.7129 13.2363C68.0579 13.4251 68.4583 13.5195 68.9141 13.5195C69.3503 13.5195 69.7376 13.4251 70.0762 13.2363C70.4147 13.0475 70.6979 12.7676 70.9258 12.3965C71.1602 12.0254 71.3359 11.5729 71.4531 11.0391C71.5768 10.4987 71.6387 9.88021 71.6387 9.18359ZM82.5664 11.1758H79.0312V8.5293H82.5664C83.0482 8.5293 83.4388 8.44792 83.7383 8.28516C84.0378 8.1224 84.2559 7.89779 84.3926 7.61133C84.5358 7.31836 84.6074 6.98958 84.6074 6.625C84.6074 6.23438 84.5358 5.87305 84.3926 5.54102C84.2559 5.20898 84.0378 4.94206 83.7383 4.74023C83.4388 4.5319 83.0482 4.42773 82.5664 4.42773H80.3203V16H76.8926V1.78125H82.5664C83.7057 1.78125 84.6855 1.98958 85.5059 2.40625C86.3327 2.82292 86.9674 3.39583 87.4102 4.125C87.8529 4.84766 88.0742 5.67448 88.0742 6.60547C88.0742 7.52344 87.8529 8.32422 87.4102 9.00781C86.9674 9.69141 86.3327 10.2253 85.5059 10.6094C84.6855 10.987 83.7057 11.1758 82.5664 11.1758ZM99.7051 13.3633V16H92.127V13.3633H99.7051ZM93.3477 1.78125V16H89.9199V1.78125H93.3477ZM98.7285 7.42578V9.97461H92.127V7.42578H98.7285ZM99.7344 1.78125V4.42773H92.127V1.78125H99.7344ZM112.986 1.78125V16H109.568L104.539 7.15234V16H101.111V1.78125H104.539L109.568 10.6289V1.78125H112.986ZM72.6445 33.9746V35H64.6465V33.9746H72.6445ZM65.0078 20.7812V35H63.8066V20.7812H65.0078ZM71.6484 27.1582V28.1836H64.6465V27.1582H71.6484ZM72.5957 20.7812V21.8164H64.6465V20.7812H72.5957ZM83.7773 20.7812H84.9785V30.4102C84.9785 31.4779 84.7539 32.3665 84.3047 33.0762C83.8555 33.7858 83.25 34.3164 82.4883 34.668C81.7331 35.0195 80.8965 35.1953 79.9785 35.1953C79.0345 35.1953 78.1849 35.0195 77.4297 34.668C76.6745 34.3164 76.0755 33.7858 75.6328 33.0762C75.1966 32.3665 74.9785 31.4779 74.9785 30.4102V20.7812H76.1699V30.4102C76.1699 31.237 76.3327 31.9303 76.6582 32.4902C76.9837 33.0501 77.4329 33.4701 78.0059 33.75C78.5788 34.0299 79.2363 34.1699 79.9785 34.1699C80.7142 34.1699 81.3685 34.0299 81.9414 33.75C82.5143 33.4701 82.9635 33.0501 83.2891 32.4902C83.6146 31.9303 83.7773 31.237 83.7773 30.4102V20.7812ZM88.3281 20.7812H92.9473C93.9303 20.7812 94.7832 20.9408 95.5059 21.2598C96.2285 21.5788 96.7852 22.0508 97.1758 22.6758C97.5729 23.2943 97.7715 24.056 97.7715 24.9609C97.7715 25.6315 97.6283 26.2402 97.3418 26.7871C97.0618 27.334 96.6745 27.793 96.1797 28.1641C95.6849 28.5286 95.112 28.7793 94.4609 28.916L94.041 29.0723H89.1094L89.0898 28.0469H93.2207C93.9629 28.0469 94.5814 27.9036 95.0762 27.6172C95.571 27.3307 95.9421 26.9531 96.1895 26.4844C96.4434 26.0091 96.5703 25.5013 96.5703 24.9609C96.5703 24.3164 96.4303 23.7598 96.1504 23.291C95.877 22.8158 95.4701 22.4512 94.9297 22.1973C94.3893 21.9434 93.7285 21.8164 92.9473 21.8164H89.5293V35H88.3281V20.7812ZM97.1074 35L93.4258 28.6426L94.7148 28.6328L98.3867 34.873V35H97.1074ZM111.57 27.1289V28.6523C111.57 29.6484 111.44 30.5501 111.18 31.3574C110.926 32.1582 110.555 32.8451 110.066 33.418C109.585 33.9909 109.005 34.4303 108.328 34.7363C107.651 35.0423 106.889 35.1953 106.043 35.1953C105.216 35.1953 104.461 35.0423 103.777 34.7363C103.1 34.4303 102.518 33.9909 102.029 33.418C101.541 32.8451 101.163 32.1582 100.896 31.3574C100.63 30.5501 100.496 29.6484 100.496 28.6523V27.1289C100.496 26.1328 100.626 25.2344 100.887 24.4336C101.154 23.6263 101.531 22.9362 102.02 22.3633C102.508 21.7904 103.09 21.3509 103.768 21.0449C104.445 20.7389 105.197 20.5859 106.023 20.5859C106.87 20.5859 107.632 20.7389 108.309 21.0449C108.986 21.3509 109.568 21.7904 110.057 22.3633C110.545 22.9362 110.919 23.6263 111.18 24.4336C111.44 25.2344 111.57 26.1328 111.57 27.1289ZM110.379 28.6523V27.1094C110.379 26.2695 110.281 25.5143 110.086 24.8438C109.897 24.1732 109.614 23.6003 109.236 23.125C108.865 22.6497 108.41 22.2852 107.869 22.0312C107.329 21.7773 106.714 21.6504 106.023 21.6504C105.353 21.6504 104.751 21.7773 104.217 22.0312C103.683 22.2852 103.227 22.6497 102.85 23.125C102.479 23.6003 102.192 24.1732 101.99 24.8438C101.795 25.5143 101.697 26.2695 101.697 27.1094V28.6523C101.697 29.4987 101.795 30.2604 101.99 30.9375C102.192 31.6081 102.482 32.1842 102.859 32.666C103.237 33.1413 103.693 33.5059 104.227 33.7598C104.767 34.0137 105.372 34.1406 106.043 34.1406C106.74 34.1406 107.355 34.0137 107.889 33.7598C108.423 33.5059 108.875 33.1413 109.246 32.666C109.617 32.1842 109.897 31.6081 110.086 30.9375C110.281 30.2604 110.379 29.4987 110.379 28.6523Z" fill="#202124"/>
<path d="M72.4785 51.3633V54H65.291V51.3633H72.4785ZM66.5117 39.7812V54H63.084V39.7812H66.5117Z" fill="#085AE7"/>
<path d="M83.3184 51.3633V54H76.1309V51.3633H83.3184ZM77.3516 39.7812V54H73.9238V39.7812H77.3516Z" fill="#42B5F2"/>
<path d="M86.4629 39.7812H89.2559L92.4297 49.6738L95.6035 39.7812H98.3965L93.5625 54H91.2969L86.4629 39.7812ZM84.7637 39.7812H87.6543L88.1914 50.6797V54H84.7637V39.7812ZM97.2051 39.7812H100.105V54H96.668V50.6797L97.2051 39.7812Z" fill="#FF8902"/>
<rect y="55" width="55" height="12" transform="rotate(-90 0 55)" fill="#085AE7"/>
<rect x="40" y="12" width="39" height="12" transform="rotate(-180 40 12)" fill="#085AE7"/>
<rect x="55" width="55" height="11" transform="rotate(90 55 0)" fill="#42B5F2"/>
<rect x="16" y="43" width="38" height="12" fill="#42B5F2"/>
<path d="M18.7939 16.6719H22.2803L28.1104 32.7266L33.9258 16.6719H37.4268L29.502 38H26.7041L18.7939 16.6719ZM17.0361 16.6719H20.4492L21.0645 31.4229V38H17.0361V16.6719ZM35.7568 16.6719H39.1846V38H35.1562V31.4229L35.7568 16.6719Z" fill="#FF8902"/>
</svg>
